<svg xmlns="http://www.w3.org/2000/svg" viewBox="0 0 240 64" width="240" height="64">
  <defs>
    <linearGradient id="flapL2" x1="0" y1="0" x2="0" y2="1">
      <stop offset="0" stop-color="#7be2ff"/>
      <stop offset="1" stop-color="#4CC9F0"/>
    </linearGradient>
    <linearGradient id="flapR2" x1="0" y1="0" x2="0" y2="1">
      <stop offset="0" stop-color="#5dd5fb"/>
      <stop offset="1" stop-color="#20C1E9"/>
    </linearGradient>
  </defs>
  <g transform="translate(2,2)">
    <path d="M6 24 L32 36 L32 60 L6 48 Z" fill="#1a2a3a"/>
    <path d="M32 36 L58 24 L58 48 L32 60 Z" fill="#243648"/>
    <path d="M6 24 L32 12 L58 24 L32 36 Z" fill="#2c4258"/>
    <path d="M6 24 L18 6 L32 12 L32 22 Z" fill="url(#flapL2)"/>
    <path d="M58 24 L46 6 L32 12 L32 22 Z" fill="url(#flapR2)"/>
  </g>
  <g transform="translate(76,0)" font-family="Inter, Arial, sans-serif" font-weight="800">
    <text x="0" y="42" font-size="32" letter-spacing="4" fill="#ffffff">HAULED</text>
    <line x1="0" y1="50" x2="32" y2="50" stroke="#4CC9F0" stroke-width="2"/>
  </g>
</svg>
